<?xml version="1.0" encoding="UTF-8"?><svg xmlns="http://www.w3.org/2000/svg" xmlns:xlink="http://www.w3.org/1999/xlink" width="30" zoomAndPan="magnify" viewBox="0 0 30 30.000001" height="30.000001" preserveAspectRatio="xMidYMid meet" version="1.0"><defs><clipPath id="clip-0"><path d="M 0.484375 0 L 29.515625 0 L 29.515625 29 L 0.484375 29 Z M 0.484375 0 " clip-rule="nonzero"/></clipPath></defs><g clip-path="url(#clip-0)"><path fill="rgb(100%, 100%, 100%)" d="M 15 0.0546875 C 6.984375 0.0546875 0.484375 6.554688 0.484375 14.570312 C 0.484375 21.851562 5.84375 27.859375 12.832031 28.910156 L 12.832031 18.417969 L 9.238281 18.417969 L 9.238281 14.601562 L 12.832031 14.601562 L 12.832031 12.0625 C 12.832031 7.859375 14.878906 6.015625 18.371094 6.015625 C 20.042969 6.015625 20.929688 6.140625 21.347656 6.195312 L 21.347656 9.527344 L 18.964844 9.527344 C 17.484375 9.527344 16.964844 10.933594 16.964844 12.519531 L 16.964844 14.605469 L 21.3125 14.605469 L 20.722656 18.417969 L 16.964844 18.417969 L 16.964844 28.941406 C 24.050781 27.976562 29.515625 21.921875 29.515625 14.570312 C 29.515625 6.554688 23.015625 0.0546875 15 0.0546875 Z M 15 0.0546875 " fill-opacity="1" fill-rule="nonzero"/></g></svg>